<svg xmlns="http://www.w3.org/2000/svg" width="47" height="46.999" viewBox="0 0 47 46.999">
  <g id="Group_80" data-name="Group 80" transform="translate(-382 -60.263)">
    <g id="Group_78" data-name="Group 78" transform="translate(382 60)">
      <ellipse id="Ellipse_88" data-name="Ellipse 88" cx="23.5" cy="23" rx="23.5" ry="23" transform="translate(0 0.263)" fill="#e01919"/>
      <circle id="Ellipse_89" data-name="Ellipse 89" cx="2.5" cy="2.5" r="2.5" transform="translate(15 7.263)" fill="#fff"/>
      <circle id="Ellipse_90" data-name="Ellipse 90" cx="4" cy="4" r="4" transform="translate(20 4.263)" fill="#fff"/>
    </g>
    <g id="Subtraction_2" data-name="Subtraction 2" transform="translate(429 107.263) rotate(180)" fill="#fff">
      <path d="M 46.49295043945313 23.4995002746582 L 0.5059689283370972 23.49940299987793 C 0.6296707391738892 17.40781021118164 3.010202884674072 11.6999454498291 7.240890502929688 7.379491329193115 C 11.58447074890137 2.943761110305786 17.35869026184082 0.5009012222290039 23.49990081787109 0.5009012222290039 C 29.64072036743164 0.5009012222290039 35.4146614074707 2.943761110305786 39.75811004638672 7.379491329193115 C 43.98899459838867 11.7002649307251 46.36952590942383 17.4080753326416 46.49295043945313 23.4995002746582 Z" stroke="none"/>
      <path d="M 45.97729873657227 22.99949836730957 C 45.7375373840332 17.22794914245605 43.42373657226563 11.83764171600342 39.40085983276367 7.729310989379883 C 35.15224075317383 3.39043116569519 29.50517082214355 1.000901222229004 23.49990081787109 1.000901222229004 C 17.49423027038574 1.000901222229004 11.84688091278076 3.39043116569519 7.598140716552734 7.729321002960205 C 3.575199365615845 11.83760452270508 1.261404633522034 17.22729110717773 1.021640658378601 22.99940299987793 L 45.97729873657227 22.99949836730957 M 46.99800109863281 23.9995002746582 L 46.99800109863281 23.9994010925293 L 0.000900683575309813 23.9994010925293 C 0.000900683575309813 17.58817100524902 2.445590734481812 11.56189155578613 6.883650779724121 7.029671192169189 C 11.32205104827881 2.497101306915283 17.2231502532959 0.0009012252558022738 23.49990081787109 0.0009012252558022738 C 29.77626037597656 0.0009012252558022738 35.67708206176758 2.497101306915283 40.11536026000977 7.029671192169189 C 44.5536994934082 11.56230163574219 46.99800109863281 17.5886116027832 46.99800109863281 23.99850082397461 L 46.99800109863281 23.9995002746582 Z" stroke="none" fill="#070707"/>
    </g>
    <g id="Ellipse_98" data-name="Ellipse 98" transform="translate(401 78.263)" fill="#fff" stroke="#000" stroke-width="1">
      <circle cx="5.5" cy="5.5" r="5.5" stroke="none"/>
      <circle cx="5.5" cy="5.5" r="5" fill="none"/>
    </g>
  </g>
</svg>
